<?xml version="1.0" encoding="UTF-8" standalone="no"?>
<!DOCTYPE svg PUBLIC "-//W3C//DTD SVG 1.1//EN"
 "http://www.w3.org/Graphics/SVG/1.1/DTD/svg11.dtd">
<!-- Generated by graphviz version 2.40.1 (20161225.0304)
 -->
<!-- Title: %3 Pages: 1 -->
<svg width="384pt" height="332pt"
 viewBox="0.00 0.00 384.00 332.00" xmlns="http://www.w3.org/2000/svg" xmlns:xlink="http://www.w3.org/1999/xlink">
<g id="graph0" class="graph" transform="scale(1 1) rotate(0) translate(4 328)">
<title>%3</title>
<polygon fill="#ffffff" stroke="transparent" points="-4,4 -4,-328 380,-328 380,4 -4,4"/>
<!-- Table -->
<g id="node1" class="node">
<title>Table</title>
<polygon fill="none" stroke="#000000" points="224.5,-324 141.5,-324 141.5,-288 224.5,-288 224.5,-324"/>
<text text-anchor="middle" x="183" y="-302.3" font-family="Latin Modern Roman" font-size="14.00" fill="#000000">AST&#45;Table</text>
</g>
<!-- PanTable -->
<g id="node6" class="node">
<title>PanTable</title>
<polygon fill="none" stroke="#000000" points="221,-252 145,-252 145,-216 221,-216 221,-252"/>
<text text-anchor="middle" x="183" y="-230.3" font-family="Latin Modern Roman" font-size="14.00" fill="#000000">PanTable</text>
</g>
<!-- Table&#45;&gt;PanTable -->
<g id="edge1" class="edge">
<title>Table&#45;&gt;PanTable</title>
<path fill="none" stroke="#000000" stroke-width=".6" d="M177.0476,-287.8314C176.2972,-280.131 176.0763,-270.9743 176.3849,-262.4166"/>
<polygon fill="#000000" stroke="#000000" stroke-width=".6" points="179.8792,-262.6161 177.024,-252.4133 172.8935,-262.1697 179.8792,-262.6161"/>
</g>
<!-- CodeBlock -->
<g id="node2" class="node">
<title>CodeBlock</title>
<polygon fill="none" stroke="#000000" points="241,-36 125,-36 125,0 241,0 241,-36"/>
<text text-anchor="middle" x="183" y="-14.3" font-family="Latin Modern Roman" font-size="14.00" fill="#000000">AST&#45;CodeBlock</text>
</g>
<!-- PanCodeBlock -->
<g id="node7" class="node">
<title>PanCodeBlock</title>
<polygon fill="none" stroke="#000000" points="237.5,-108 128.5,-108 128.5,-72 237.5,-72 237.5,-108"/>
<text text-anchor="middle" x="183" y="-86.3" font-family="Latin Modern Roman" font-size="14.00" fill="#000000">PanCodeBlock</text>
</g>
<!-- CodeBlock&#45;&gt;PanCodeBlock -->
<g id="edge15" class="edge">
<title>CodeBlock&#45;&gt;PanCodeBlock</title>
<path fill="none" stroke="#000000" stroke-width=".6" d="M188.976,-36.4133C189.7071,-44.0593 189.9203,-53.1084 189.6155,-61.5726"/>
<polygon fill="#000000" stroke="#000000" stroke-width=".6" points="186.1048,-61.6264 188.9524,-71.8314 193.0902,-62.078 186.1048,-61.6264"/>
</g>
<!-- PanTableStr -->
<g id="node3" class="node">
<title>PanTableStr</title>
<polygon fill="none" stroke="#000000" points="94,-180 0,-180 0,-144 94,-144 94,-180"/>
<text text-anchor="middle" x="47" y="-158.3" font-family="Latin Modern Roman" font-size="14.00" fill="#000000">PanTableStr</text>
</g>
<!-- PanTableStr&#45;&gt;PanTable -->
<g id="edge8" class="edge">
<title>PanTableStr&#45;&gt;PanTable</title>
<path fill="none" stroke="#000000" stroke-width=".6" d="M87.2594,-180.1628C105.7201,-189.4565 127.4181,-200.8724 145.5272,-210.7967"/>
<polygon fill="#000000" stroke="#000000" stroke-width=".6" points="144.1888,-214.056 154.6339,-215.8314 147.5757,-207.9299 144.1888,-214.056"/>
</g>
<!-- PanTableStr&#45;&gt;PanCodeBlock -->
<g id="edge9" class="edge">
<title>PanTableStr&#45;&gt;PanCodeBlock</title>
<path fill="none" stroke="#000000" stroke-width=".6" stroke-dasharray="5,2" d="M81.3185,-143.8314C99.0359,-134.4516 120.8345,-122.9112 139.6984,-112.9244"/>
<polygon fill="#000000" stroke="#000000" stroke-width=".6" points="141.4922,-115.935 148.6924,-108.1628 138.2169,-109.7485 141.4922,-115.935"/>
</g>
<!-- PanTableMarkdown -->
<g id="node4" class="node">
<title>PanTableMarkdown</title>
<polygon fill="none" stroke="#000000" points="253.5,-180 112.5,-180 112.5,-144 253.5,-144 253.5,-180"/>
<text text-anchor="middle" x="183" y="-158.3" font-family="Latin Modern Roman" font-size="14.00" fill="#000000">PanTableMarkdown</text>
</g>
<!-- PanTableMarkdown&#45;&gt;PanTable -->
<g id="edge5" class="edge">
<title>PanTableMarkdown&#45;&gt;PanTable</title>
<path fill="none" stroke="#000000" stroke-width=".6" d="M188.976,-180.4133C189.7071,-188.0593 189.9203,-197.1084 189.6155,-205.5726"/>
<polygon fill="#000000" stroke="#000000" stroke-width=".6" points="186.1048,-205.6264 188.9524,-215.8314 193.0902,-206.078 186.1048,-205.6264"/>
</g>
<!-- PanTableMarkdown&#45;&gt;PanCodeBlock -->
<g id="edge6" class="edge">
<title>PanTableMarkdown&#45;&gt;PanCodeBlock</title>
<path fill="none" stroke="#000000" stroke-width=".6" d="M171.0952,-143.8314C169.5944,-136.131 169.1526,-126.9743 169.7698,-118.4166"/>
<polygon fill="#000000" stroke="#000000" stroke-width=".6" points="173.2522,-118.7763 171.048,-108.4133 166.3087,-117.889 173.2522,-118.7763"/>
</g>
<!-- PanTableMarkdown&#45;&gt;PanCodeBlock -->
<g id="edge7" class="edge">
<title>PanTableMarkdown&#45;&gt;PanCodeBlock</title>
<path fill="none" stroke="#000000" stroke-width=".6" stroke-dasharray="5,2" d="M183,-143.8314C183,-136.131 183,-126.9743 183,-118.4166"/>
<polygon fill="#000000" stroke="#000000" stroke-width=".6" points="186.5001,-118.4132 183,-108.4133 179.5001,-118.4133 186.5001,-118.4132"/>
</g>
<!-- PanTableText -->
<g id="node5" class="node">
<title>PanTableText</title>
<polygon fill="none" stroke="#000000" points="376,-180 272,-180 272,-144 376,-144 376,-180"/>
<text text-anchor="middle" x="324" y="-158.3" font-family="Latin Modern Roman" font-size="14.00" fill="#000000">PanTableText</text>
</g>
<!-- PanTableText&#45;&gt;PanTable -->
<g id="edge10" class="edge">
<title>PanTableText&#45;&gt;PanTable</title>
<path fill="none" stroke="#000000" stroke-width=".6" d="M288.4311,-180.1628C269.9806,-189.5843 247.2589,-201.187 227.6391,-211.2055"/>
<polygon fill="#000000" stroke="#000000" stroke-width=".6" points="225.8946,-208.1664 218.5803,-215.8314 229.0781,-214.4007 225.8946,-208.1664"/>
</g>
<!-- PanTableText&#45;&gt;PanCodeBlock -->
<g id="edge11" class="edge">
<title>PanTableText&#45;&gt;PanCodeBlock</title>
<path fill="none" stroke="#000000" stroke-width=".6" d="M282.4674,-143.8314C263.1845,-134.4516 240.4561,-122.9112 221.5559,-112.9244"/>
<polygon fill="#000000" stroke="#000000" stroke-width=".6" points="223.0885,-109.7752 212.617,-108.1628 219.7975,-115.9533 223.0885,-109.7752"/>
</g>
<!-- PanTable&#45;&gt;Table -->
<g id="edge2" class="edge">
<title>PanTable&#45;&gt;Table</title>
<path fill="none" stroke="#000000" stroke-width=".6" d="M188.976,-252.4133C189.7071,-260.0593 189.9203,-269.1084 189.6155,-277.5726"/>
<polygon fill="#000000" stroke="#000000" stroke-width=".6" points="186.1048,-277.6264 188.9524,-287.8314 193.0902,-278.078 186.1048,-277.6264"/>
</g>
<!-- PanTable&#45;&gt;PanTableStr -->
<g id="edge4" class="edge">
<title>PanTable&#45;&gt;PanTableStr</title>
<path fill="none" stroke="#000000" stroke-width=".6" stroke-dasharray="5,2" d="M144.93,-216.937C125.9656,-207.431 103.1878,-195.4623 84.3297,-185.1249"/>
<polygon fill="#000000" stroke="#000000" stroke-width=".6" points="85.8658,-181.9749 75.4208,-180.1992 82.4787,-188.1009 85.8658,-181.9749"/>
</g>
<!-- PanTable&#45;&gt;PanTableMarkdown -->
<g id="edge3" class="edge">
<title>PanTable&#45;&gt;PanTableMarkdown</title>
<path fill="none" stroke="#000000" stroke-width=".6" d="M177.0476,-215.8314C176.2972,-208.131 176.0763,-198.9743 176.3849,-190.4166"/>
<polygon fill="#000000" stroke="#000000" stroke-width=".6" points="179.8792,-190.6161 177.024,-180.4133 172.8935,-190.1697 179.8792,-190.6161"/>
</g>
<!-- PanCodeBlock&#45;&gt;CodeBlock -->
<g id="edge12" class="edge">
<title>PanCodeBlock&#45;&gt;CodeBlock</title>
<path fill="none" stroke="#000000" stroke-width=".6" d="M177.0476,-71.8314C176.2972,-64.131 176.0763,-54.9743 176.3849,-46.4166"/>
<polygon fill="#000000" stroke="#000000" stroke-width=".6" points="179.8792,-46.6161 177.024,-36.4133 172.8935,-46.1697 179.8792,-46.6161"/>
</g>
<!-- PanCodeBlock&#45;&gt;PanTableMarkdown -->
<g id="edge13" class="edge">
<title>PanCodeBlock&#45;&gt;PanTableMarkdown</title>
<path fill="none" stroke="#000000" stroke-width=".6" d="M194.952,-108.4133C196.4305,-116.1442 196.8499,-125.3097 196.2103,-133.8545"/>
<polygon fill="#000000" stroke="#000000" stroke-width=".6" points="192.7319,-133.4618 194.9048,-143.8314 199.6727,-134.37 192.7319,-133.4618"/>
</g>
<!-- PanCodeBlock&#45;&gt;PanTableText -->
<g id="edge14" class="edge">
<title>PanCodeBlock&#45;&gt;PanTableText</title>
<path fill="none" stroke="#000000" stroke-width=".6" d="M224.264,-108.038C243.5881,-117.4333 266.4182,-129.0232 285.3969,-139.0507"/>
<polygon fill="#000000" stroke="#000000" stroke-width=".6" points="283.9007,-142.2193 294.3721,-143.8314 287.1915,-136.041 283.9007,-142.2193"/>
</g>
</g>
</svg>
